# xmcd
#
# Track frame offsets: 
#        150
#        17425
#        35295
#        47788
#        63276
#        77329
#        84555
#        101464
#        114002
#        128776
#        140976
#        162559
#        178329
#        192117
#
# Disc length: 2767 seconds
#
# Revision: 0
# Processed by: cddbd v1.5.2PL0 Copyright (c) Steve Scherf et al.
# Submitted via: ExactAudioCopyFreeDBPlugin 1.0
#
DISCID=b00acd0e
DTITLE=Jim Crawfrod - Blues Boy
DYEAR=2003
DGENRE=Blues
TTITLE0=Brownsville
TTITLE1=Trouble In Mind
TTITLE2='Cause You're Satisfied
TTITLE3=People Get Ready
TTITLE4=Love Her So
TTITLE5=Grinnin' In Your Face
TTITLE6=Stones In My Passway
TTITLE7=River Jordan
TTITLE8=Hesitation Blues
TTITLE9=Jitterbug Swing
TTITLE10=Walk On
TTITLE11=How Happy I Am
TTITLE12=Pappa's On the House Top
TTITLE13=Blues boy
EXTD=
EXTT0=
EXTT1=
EXTT2=
EXTT3=
EXTT4=
EXTT5=
EXTT6=
EXTT7=
EXTT8=
EXTT9=
EXTT10=
EXTT11=
EXTT12=
EXTT13=
PLAYORDER=
